HIERARCHY
ROOT Hips
{
	OFFSET 0.000000 0.000000 0.000000
	CHANNELS 6 Xposition Yposition Zposition Yrotation Xrotation Zrotation 
	JOINT LeftHip
	{
		OFFSET 0.089933 0.000579 -0.000064
		CHANNELS 3 Yrotation Xrotation Zrotation
		JOINT LeftKnee
		{
			OFFSET 0.000000 -0.450274 0.000001
			CHANNELS 3 Yrotation Xrotation Zrotation
			JOINT LeftAnkle
			{
				OFFSET 0.000000 -0.455087 0.000283
				CHANNELS 3 Yrotation Xrotation Zrotation
				JOINT LeftToe
				{
					OFFSET 0.000000 -0.083893 0.183160
					CHANNELS 3 Yrotation Xrotation Zrotation
					End Site
					{
						OFFSET 0.000000 0.000000 0.000000
					}
				}
			}
		}
	}
	JOINT RightHip
	{
		OFFSET -0.089933 0.000604 -0.000067
		CHANNELS 3 Yrotation Xrotation Zrotation
		JOINT RightKnee
		{
			OFFSET 0.000000 -0.450274 0.000001
			CHANNELS 3 Yrotation Xrotation Zrotation
			JOINT RightAnkle
			{
				OFFSET 0.000000 -0.455087 0.000283
				CHANNELS 3 Yrotation Xrotation Zrotation
				JOINT RightToe
				{
					OFFSET 0.000000 -0.083893 0.183160
					CHANNELS 3 Yrotation Xrotation Zrotation
					End Site
					{
						OFFSET 0.000000 0.000000 0.000000
					}
				}
			}
		}
	}
	JOINT Chest
	{
		OFFSET 0.000000 0.108199 -0.012022
		CHANNELS 3 Yrotation Xrotation Zrotation
		JOINT Chest3
		{
			OFFSET 0.000000 0.206168 -0.010257
			CHANNELS 3 Yrotation Xrotation Zrotation
			JOINT Chest4
			{
				OFFSET 0.000000 0.098558 -0.000242
				CHANNELS 3 Yrotation Xrotation Zrotation
				JOINT Neck
				{
					OFFSET 0.000000 0.137369 0.000000
					CHANNELS 3 Yrotation Xrotation Zrotation
					JOINT Head
					{
						OFFSET 0.000000 0.088151 0.000814
						CHANNELS 3 Yrotation Xrotation Zrotation
						End Site
						{
							OFFSET 0.000000 0.000000 0.000000
						}
					}
				}
				JOINT LeftCollar
				{
					OFFSET 0.030193 0.077146 0.000000
					CHANNELS 3 Yrotation Xrotation Zrotation
					JOINT LeftShoulder
					{
						OFFSET 0.144780 0.000000 0.000000
						CHANNELS 3 Yrotation Xrotation Zrotation
						JOINT LeftElbow
						{
							OFFSET 0.276846 0.000000 0.000000
							CHANNELS 3 Yrotation Xrotation Zrotation
							JOINT LeftWrist
							{
								OFFSET 0.268574 0.000000 0.000066
								CHANNELS 3 Yrotation Xrotation Zrotation
								End Site
								{
									OFFSET 0.000000 0.000000 0.000000
								}
							}
						}
					}
				}
				JOINT RightCollar
				{
					OFFSET -0.030193 0.077146 0.000000
					CHANNELS 3 Yrotation Xrotation Zrotation
					JOINT RightShoulder
					{
						OFFSET -0.144780 0.000000 0.000000
						CHANNELS 3 Yrotation Xrotation Zrotation
						JOINT RightElbow
						{
							OFFSET -0.276846 0.000000 0.000000
							CHANNELS 3 Yrotation Xrotation Zrotation
							JOINT RightWrist
							{
								OFFSET -0.268574 0.000000 0.000066
								CHANNELS 3 Yrotation Xrotation Zrotation
								End Site
								{
									OFFSET 0.000000 0.000000 0.000000
								}
							}
						}
					}
				}
			}
		}
	}
}
MOTION
Frames: 5
Frame Time: 0.016667
0.000000 0.000000 0.000000 203.790457 4.584361 0.847691 7.751071 355.786792 0.202052 358.460341 3.991322 359.582076 3.605097 357.850852 347.339072 359.576137 357.843542 2.871076 357.719153 337.569282 4.321241 351.110743 34.124040 355.810757 343.623254 359.103854 346.503596 1.402318 354.482652 10.623705 359.884391 0.500734 358.330055 0.735927 354.386656 358.360135 359.713066 5.908475 0.051916 356.753957 8.917125 2.083909 352.920589 340.141952 5.931702 352.396689 4.597743 344.242175 358.232593 340.474896 293.112747 3.426026 354.957386 7.107000 355.457835 6.763259 357.167951 4.441919 2.888978 10.583064 0.949526 344.436544 73.485258 9.479406 14.800635 0.170979 5.874187 8.577585 12.620341 
0.000000 0.000000 0.000000 202.680500 4.507650 0.877513 8.102068 356.293079 359.998318 358.657162 3.792604 359.503748 4.151521 357.748523 347.438554 359.940499 358.168499 2.961690 357.697681 336.970515 4.430456 351.167269 34.787234 355.692261 344.259745 359.380919 347.249802 0.439028 355.061946 9.933397 359.898921 0.555690 358.313436 0.727802 354.431744 358.350763 359.660894 5.926623 0.029533 356.649354 8.972833 2.082479 352.883325 340.290920 5.904934 352.337852 4.603267 344.262006 358.232110 340.412391 293.285484 3.579153 354.885703 7.142199 355.465410 6.937964 357.103037 4.368524 2.827077 10.601101 0.738921 344.686735 73.531206 9.507955 14.831528 0.246762 5.844125 8.539554 12.477202 
0.000000 0.000000 0.000000 201.673127 4.435053 0.899503 8.455818 356.740931 359.811635 358.819241 3.676113 359.440662 4.605824 357.639158 347.493691 0.187923 358.349592 3.130261 357.634246 336.529510 4.512722 351.433523 35.050865 355.703251 345.184652 359.686508 348.346181 359.867659 355.660404 8.750316 359.910510 0.595554 358.306296 0.718093 354.464610 358.350046 359.564176 5.936799 0.005768 356.533010 9.051498 2.070398 352.700051 340.440718 5.869174 352.248495 4.626016 344.265207 358.186669 340.316116 293.440215 3.836708 354.803256 7.214585 355.487597 7.085155 357.026526 4.290094 2.738323 10.619990 0.457791 344.996870 73.562106 9.555539 14.790091 0.327626 5.908147 8.454110 12.410012 
0.000000 0.000000 0.000000 200.759057 4.359344 0.892758 8.714341 357.196654 359.643535 358.909033 3.531795 359.394498 5.104037 357.550583 347.631706 0.343583 358.403014 3.231710 357.473289 336.199272 4.598561 351.750724 34.985979 355.805271 345.867655 359.910408 349.277056 0.151103 356.220839 7.620627 359.916370 0.637148 358.321017 0.704173 354.499410 358.368533 359.449406 5.949110 359.985712 356.420672 9.124448 2.061015 352.379968 340.571012 5.823949 352.151517 4.663823 344.273138 358.118830 340.183904 293.537644 4.084071 354.686151 7.290689 355.571573 7.227066 356.951307 4.196324 2.623943 10.631617 0.145635 345.352876 73.580260 9.614497 14.753456 0.389491 6.034577 8.269611 12.407148 
0.000000 0.000000 0.000000 199.963622 4.278954 0.846520 8.888820 357.657477 359.529144 359.001371 3.366348 359.366842 5.542520 357.476162 347.841000 0.463700 358.345970 3.226623 357.214369 335.996125 4.702885 352.024900 34.512376 355.960322 346.121830 359.994977 349.844488 1.198495 356.878011 6.785470 359.915578 0.683267 358.363599 0.684635 354.538439 358.411458 359.314366 5.966251 359.971025 356.311093 9.185636 2.057692 351.994648 340.678572 5.773391 352.044273 4.725095 344.290758 358.027494 340.000388 293.567236 4.300596 354.469705 7.358331 355.722348 7.353350 356.903395 4.092945 2.501298 10.636563 359.808770 345.741608 73.571739 9.689139 14.742636 0.435917 6.178719 8.055582 12.450128 
